<svg width="56" height="56" viewBox="0 0 56 56" fill="none" xmlns="http://www.w3.org/2000/svg">
<path d="M18.6975 0.208496C18.4895 0.317871 18.1721 0.591305 17.9861 0.810051C17.6797 1.19286 17.6578 1.30223 17.6249 2.25378L17.5812 3.2819H17.0449C16.6071 3.2819 16.443 3.33659 16.235 3.55533C16.0818 3.69752 15.9614 3.94908 15.9614 4.1022C15.9614 4.25532 16.0818 4.50688 16.235 4.64907C16.4977 4.9225 16.5305 4.9225 18.4239 4.9225C20.3172 4.9225 20.35 4.9225 20.6127 4.64907C20.7659 4.50688 20.8863 4.25532 20.8863 4.1022C20.8863 3.94908 20.7659 3.69752 20.6127 3.55533C20.4048 3.33659 20.2406 3.2819 19.7919 3.2819H19.2337L19.2666 2.48347L19.2994 1.69598L22.0135 1.66317C23.5019 1.65223 24.7168 1.6741 24.7168 1.72879C24.7168 1.78348 24.1367 3.06315 23.4363 4.57251L22.1449 7.32872L19.4636 8.6412C17.8876 9.41776 16.6947 10.0631 16.5743 10.2162C16.246 10.6427 16.5196 11.288 17.0887 11.4302C17.2638 11.474 18.0408 11.1568 19.6058 10.4021C20.8644 9.78963 21.9041 9.29745 21.9369 9.29745C21.9588 9.29745 21.9807 11.1459 21.9807 13.399V17.5005H15.2938H8.60695L8.65073 16.9099C8.74922 15.7833 8.91339 15.6302 11.8464 14.1865C14.7138 12.7755 14.8342 12.6662 14.4949 11.9552C14.1447 11.2334 13.9696 11.2771 10.1391 13.2021C8.18013 14.1865 7.80803 14.4927 7.29365 15.5208C7.06382 15.9911 7.04194 16.1771 7.0091 18.3864L6.97627 20.7598L6.3634 20.8036C5.8928 20.8473 5.69581 20.9129 5.54259 21.1098C5.27993 21.427 5.29087 21.777 5.57542 22.1379L5.7943 22.4223H7.80803H9.82175L10.0406 22.1379C10.3252 21.777 10.3361 21.427 10.0735 21.1098C9.92025 20.9129 9.72326 20.8473 9.25266 20.8036L8.62884 20.7598V19.9504V19.1411H15.3048H21.9917L21.9588 20.1473L21.926 21.1426L15.3814 24.3363C11.7808 26.0972 8.65073 27.6722 8.40996 27.8363C8.16918 28.0003 7.82992 28.3613 7.64387 28.6347C7.07477 29.4988 6.98722 29.9909 6.98722 32.3972V34.5628H6.40718C5.93658 34.5628 5.77241 34.6175 5.58636 34.8143C4.99538 35.4487 5.55353 36.2034 6.61511 36.2034H6.98722V37.0237V37.844H6.40718C5.93658 37.844 5.77241 37.8987 5.58636 38.0955C5.15954 38.544 5.33465 39.1455 5.93658 39.3752C6.33057 39.5174 9.27454 39.5174 9.71231 39.3643C10.2924 39.1565 10.4565 38.5221 10.0516 38.0846C9.86553 37.8987 9.70137 37.844 9.23077 37.844H8.62884V37.0237V36.2034H9.00094C9.81081 36.2034 10.2705 35.8752 10.2705 35.3065C10.2705 34.8253 9.89836 34.5628 9.23077 34.5628H8.62884V33.7425V32.9331L11.7589 32.9003L14.8889 32.8675L15.1625 32.5503C15.458 32.2112 15.4361 31.8284 15.1187 31.4675C14.9546 31.3034 14.6481 31.2816 11.7808 31.2816H8.62884V30.7894C8.62884 30.1769 8.83678 29.6738 9.24171 29.291C9.41682 29.1269 10.4675 28.5581 11.5838 28.0222C12.7001 27.4753 15.4799 26.1301 17.7672 25.0035L21.926 22.9801L21.9588 26.9941C21.9698 29.2035 21.9588 31.0737 21.926 31.1394C21.8932 31.2487 21.4007 31.2816 19.956 31.2816C18.1831 31.2816 18.0189 31.3034 17.8219 31.5003C17.5812 31.7409 17.5374 32.1565 17.7125 32.4847C17.8985 32.8237 18.4457 32.9222 20.2406 32.9222H21.9807V34.0378L21.9698 35.1643L18.1065 43.0392L14.2541 50.9141L7.73142 50.9688L1.2087 51.0235L0.792822 51.3516C0.0923963 51.9313 -0.0279895 52.2704 0.00484299 53.6157C0.0376755 54.7203 0.0486196 54.7969 0.366 55.1906C0.552051 55.4094 0.869431 55.6828 1.07737 55.7922C1.44947 55.9891 2.35784 56 28 56C53.6422 56 54.5505 55.9891 54.9226 55.7922C55.1306 55.6828 55.4479 55.4094 55.634 55.1906C55.9514 54.7969 55.9623 54.7203 55.9952 53.6157C56.028 52.2704 55.9076 51.9313 55.2072 51.3516L54.7913 51.0235L48.2686 50.9688L41.7459 50.9141L37.8935 43.0392L34.0302 35.1643L34.0193 34.0378V32.9222H40.6952H47.3712V33.7425V34.5628H46.7692C46.1016 34.5628 45.7295 34.8253 45.7295 35.3065C45.7295 35.8752 46.1892 36.2034 46.9991 36.2034H47.3712V37.0237V37.844H46.7692C46.1016 37.844 45.7295 38.1065 45.7295 38.5877C45.7295 39.3315 46.1564 39.4846 48.2029 39.4846C50.1838 39.4846 50.6435 39.3205 50.6544 38.5987C50.6544 38.1393 50.2385 37.844 49.5819 37.844H49.0128V37.0237V36.2034H49.3849C50.151 36.2034 50.6435 35.8534 50.6544 35.3174C50.6544 34.8581 50.2385 34.5628 49.5819 34.5628H49.0128V32.3972C49.0128 29.98 48.9252 29.4988 48.3452 28.6128C48.1482 28.3285 47.798 27.9566 47.5572 27.8035C47.3164 27.6394 44.1864 26.0754 40.5967 24.3254L34.074 21.1426L34.0412 20.1473L34.0083 19.1411H36.5912H39.174L39.4366 18.8676C39.7431 18.5723 39.765 18.4083 39.5899 18.0145C39.3819 17.5442 39.0864 17.5005 36.4817 17.5005H34.0193V13.399C34.0193 11.1459 34.0412 9.29745 34.074 9.29745C34.1944 9.29745 46.3424 15.2474 46.627 15.4442C47.01 15.7067 47.3712 16.4833 47.3712 17.0411V17.5005H44.9087H42.4353L42.1727 17.7739C41.8225 18.113 41.8115 18.5833 42.1508 18.9005C42.4025 19.1301 42.4901 19.1411 44.8868 19.1411H47.3712V19.9504V20.7598L46.7473 20.8036C46.2767 20.8473 46.0797 20.9129 45.9265 21.1098C45.6639 21.427 45.6748 21.777 45.9594 22.1379L46.1782 22.4223H48.192H50.2057L50.4246 22.1379C50.7091 21.777 50.7201 21.427 50.4574 21.1098C50.3042 20.9129 50.1072 20.8473 49.6366 20.8036L49.0347 20.7598L48.9909 18.3864C48.9581 16.1442 48.9362 15.9911 48.6845 15.4771C48.1044 14.2849 48.0278 14.2411 40.6296 10.6209L33.8223 7.30685L32.5528 4.55063C31.8523 3.04128 31.2832 1.77254 31.2832 1.71785C31.2832 1.6741 32.4981 1.65223 33.9974 1.66317L36.7006 1.69598L36.7334 2.48347L36.7663 3.2819H36.2081C35.7594 3.2819 35.5952 3.33659 35.3873 3.55533C35.0371 3.89439 35.0371 4.31001 35.3873 4.64907C35.65 4.9225 35.6828 4.9225 37.5761 4.9225C39.4695 4.9225 39.5023 4.9225 39.765 4.64907C39.9182 4.50688 40.0386 4.25532 40.0386 4.1022C40.0386 3.94908 39.9182 3.69752 39.765 3.55533C39.557 3.33659 39.3929 3.2819 38.9551 3.2819H38.4188L38.3751 2.25378C38.3422 1.30223 38.3203 1.19286 38.0139 0.810051C37.3025 -0.0540009 38.0139 0.000686646 28 0.000686646C19.5183 0.000686646 19.0586 0.0116234 18.6975 0.208496ZM30.6704 4.37563L31.9071 7.05529L29.9481 7.0881C28.8755 7.09904 27.1245 7.09904 26.0519 7.0881L24.0929 7.05529L25.0013 5.08656C25.5047 4.00377 26.0629 2.77878 26.2599 2.3741L26.5991 1.63036L28.0109 1.66317L29.4337 1.69598L30.6704 4.37563ZM29.6088 10.3584L28 11.9771L26.3912 10.3584L24.7715 8.75058H28H31.2285L29.6088 10.3584ZM25.2311 14.7333L23.6223 16.3521V13.1255V9.899L25.2311 11.5177L26.8509 13.1255L25.2311 14.7333ZM32.3777 13.1474V16.3521L30.7689 14.7443L29.1491 13.1255L30.736 11.5396C31.6116 10.6646 32.3339 9.95369 32.3448 9.95369C32.3667 9.95369 32.3777 11.3974 32.3777 13.1474ZM29.6416 15.9146L31.2285 17.5005H28H24.7715L26.3584 15.9146C27.2339 15.0396 27.9672 14.3286 28 14.3286C28.0328 14.3286 28.7661 15.0396 29.6416 15.9146ZM32.3777 19.9614V20.7817H28H23.6223V19.9614V19.1411H28H32.3777V19.9614ZM29.6088 24.0301L28 25.6488L26.3912 24.0301L24.7715 22.4223H28H31.2285L29.6088 24.0301ZM40.2684 25.9879C43.6611 27.6503 46.5832 29.1378 46.7583 29.291C47.1632 29.6738 47.3712 30.1769 47.3712 30.7894V31.2816L40.7281 31.2597L34.074 31.2269L34.0412 27.0925C34.0302 24.8285 34.0302 22.9692 34.0521 22.9692C34.074 22.9692 36.8648 24.3254 40.2684 25.9879ZM25.2421 25.2988L26.7961 26.8519L25.2092 28.4378L23.6223 30.0238V26.8738C23.6223 25.1457 23.6333 23.7348 23.6552 23.7348C23.6661 23.7348 24.3775 24.4348 25.2421 25.2988ZM32.3777 26.8738V30.0238L30.7908 28.4378L29.2039 26.8519L30.7579 25.2988C31.6225 24.4348 32.3339 23.7348 32.3448 23.7348C32.3667 23.7348 32.3777 25.1457 32.3777 26.8738ZM29.6416 29.6956L31.2285 31.2816H28H24.7715L26.3584 29.6956C27.2339 28.8206 27.9672 28.1097 28 28.1097C28.0328 28.1097 28.7661 28.8206 29.6416 29.6956ZM32.3777 33.7425V34.5628H28H23.6223V33.7425V32.9222H28H32.3777V33.7425ZM30.8893 36.6627C29.0397 38.7408 28.0547 39.8127 28 39.8127C27.9453 39.8127 26.9603 38.7408 25.1107 36.6627L24.6949 36.2034H28H31.3051L30.8893 36.6627ZM25.5923 39.6596L26.8946 41.0924L22.8891 45.5111C20.6893 47.9392 18.6756 50.1704 18.402 50.4548L17.9095 50.9797L16.9902 50.9469L16.0709 50.9141L18.2159 46.5392C19.3979 44.133 20.952 40.9611 21.6743 39.4846L22.9876 36.8049L23.6442 37.5159C24.0054 37.9096 24.8809 38.8721 25.5923 39.6596ZM36.5255 43.9689L39.9291 50.9141L39.0098 50.9469L38.0905 50.9797L37.5542 50.4001C37.2588 50.0829 36.4598 49.2188 35.7813 48.486C34.7416 47.3485 34.5008 47.1407 34.2272 47.1407C33.8661 47.1407 33.3626 47.5564 33.3626 47.8517C33.3626 48.1579 33.5925 48.4751 34.6978 49.711L35.7813 50.9141L31.8961 50.9469C29.7511 50.9579 26.2489 50.9579 24.1039 50.9469L20.2078 50.9141L24.082 46.6267C26.2052 44.2751 27.9672 42.3392 28 42.3392C28.0328 42.3392 28.7442 43.1048 29.576 44.0455C30.4187 44.9751 31.2176 45.7954 31.3489 45.8501C31.8961 46.1017 32.6184 45.4345 32.4105 44.8767C32.3667 44.7564 31.6225 43.8705 30.7579 42.9189C29.9043 41.9564 29.182 41.1471 29.171 41.1142C29.1272 40.983 32.9577 36.8487 33.0453 36.9362C33.089 36.9799 34.654 40.1518 36.5255 43.9689ZM54.3207 53.4844V54.3047H28H1.6793L1.64647 53.6047C1.62458 53.2219 1.63552 52.8391 1.66835 52.7625C1.72308 52.6313 5.95847 52.6094 28.0219 52.6313L54.3207 52.6641V53.4844Z" fill="#52C306"/>
</svg>
