<svg width="58" height="72" viewBox="0 0 58 72" fill="none" xmlns="http://www.w3.org/2000/svg">
<path d="M28.4901 0.149504C27.6082 0.585558 27.7322 3.20188 28.6417 3.44101C28.8346 3.48321 29.1654 3.48321 29.3583 3.44101C30.2954 3.20188 30.378 0.571491 29.4685 0.135437C29.0551 -0.0474238 28.8897 -0.0474238 28.4901 0.149504Z" fill="#57B33E"/>
<path d="M21.4208 3.21592C21.2554 3.38472 21.1451 3.68011 21.1451 3.96144C21.1451 4.35529 21.2829 4.56628 21.9582 5.2274C22.413 5.67752 22.8677 6.02917 22.9917 6.02917C23.4051 6.02917 23.8875 5.70565 24.0391 5.33993C24.2458 4.80541 24.0666 4.39749 23.2398 3.59571C22.4543 2.8502 21.8893 2.73767 21.4208 3.21592Z" fill="#57B33E"/>
<path d="M34.7604 3.59571C33.9336 4.39749 33.7545 4.80541 33.9612 5.33993C34.1128 5.70565 34.5951 6.02917 35.0085 6.02917C35.1325 6.02917 35.5873 5.67752 36.042 5.2274C36.7173 4.56628 36.8551 4.35529 36.8551 3.96144C36.8551 3.37065 36.4417 2.9346 35.8904 2.9346C35.5735 2.9346 35.2841 3.10339 34.7604 3.59571Z" fill="#57B33E"/>
<path d="M28.1456 5.74796C25.3757 6.22622 23.4051 9.03947 23.9012 11.8246C24.2182 13.611 25.2793 15.0036 26.9054 15.7772C27.7184 16.157 27.9802 16.2133 29 16.2133C30.0198 16.2133 30.2816 16.157 31.0946 15.7772C33.7681 14.4972 34.8705 11.487 33.6854 8.75814C32.7759 6.6482 30.4056 5.36818 28.1456 5.74796ZM30.3092 8.11109C32.9964 9.44739 32.5416 13.3859 29.6201 14.0611C28.6417 14.2862 27.5944 13.9767 26.8778 13.2593C26.2026 12.5842 25.9269 11.923 25.9269 10.9525C25.9132 8.65968 28.3248 7.11239 30.3092 8.11109Z" fill="#57B33E"/>
<path d="M18.5546 10.2913C18.0172 10.868 18.2101 11.6557 18.9542 11.923C19.5055 12.1199 20.4563 12.1199 20.9524 11.9371C21.7241 11.6276 21.9308 10.8118 21.3796 10.2773C21.104 10.01 20.8973 9.9678 19.9602 9.9678C18.9818 9.9678 18.8164 10.01 18.5546 10.2913Z" fill="#57B33E"/>
<path d="M36.607 10.2913C36.0696 10.868 36.2901 11.6417 37.048 11.9371C37.5441 12.1199 38.495 12.1199 39.0462 11.923C39.7903 11.6557 39.9971 10.8118 39.4321 10.2773C39.1564 10.01 38.9497 9.9678 38.0127 9.9678C37.0342 9.9678 36.8689 10.01 36.607 10.2913Z" fill="#57B33E"/>
<path d="M22.7297 16.0022C22.5781 16.0726 22.1647 16.4383 21.8064 16.8321C21.0623 17.648 20.952 18.2106 21.4206 18.6889C21.9304 19.2093 22.5092 19.0687 23.3085 18.2247C24.1905 17.3245 24.3145 16.8884 23.8735 16.3961C23.5014 15.9741 23.1156 15.8475 22.7297 16.0022Z" fill="#57B33E"/>
<path d="M34.5538 16.0163C34.1128 16.1992 33.7821 16.7759 33.8923 17.1697C33.9475 17.3526 34.3058 17.8308 34.6916 18.2247C35.4909 19.0687 36.0697 19.2093 36.5795 18.6889C37.0756 18.1825 36.9378 17.6339 36.1386 16.7899C35.3531 15.9882 35.0361 15.8194 34.5538 16.0163Z" fill="#57B33E"/>
<path d="M28.3801 18.7311C28.0907 18.9843 27.9942 19.2094 27.9391 19.8845C27.8151 21.3615 28.3525 22.1211 29.3585 21.8679C30.1853 21.6569 30.3783 19.3922 29.6203 18.7311C29.4274 18.5483 29.138 18.4076 29.0002 18.4076C28.8624 18.4076 28.573 18.5483 28.3801 18.7311Z" fill="#57B33E"/>
<path d="M6.55155 26.4113C6.37241 26.4535 6.11058 26.6645 5.97277 26.8473C5.82119 27.0724 4.77387 31.8408 2.96862 40.6744L0.19873 54.1359V56.5693C0.19873 58.9324 0.212511 59.0168 0.515683 59.3122L0.832635 59.6217H13.3316H25.8305V62.6459V65.6702H21.655H17.4657L17.1763 65.9937C16.9007 66.2891 16.8732 66.472 16.8732 68.1036V69.8901H11.6641C6.02789 69.8901 5.98655 69.8901 5.79363 70.6637C5.69716 71.0716 6.00033 71.7749 6.33107 71.9156C6.63424 72.0281 51.3658 72.0281 51.669 71.9156C51.9997 71.7749 52.3029 71.0716 52.2064 70.6637C52.0135 69.8901 51.9722 69.8901 46.3359 69.8901H41.1269V68.0896C41.1269 65.4733 41.5265 65.6702 36.3313 65.6702H32.1696V62.6459V59.6217H44.6823H57.2088L57.4982 59.2982C57.7876 58.9887 57.8013 58.8481 57.8013 56.5131L57.7876 54.0655L54.9901 40.5197C52.6199 28.9854 52.1513 26.9317 51.8895 26.6645L51.5863 26.355L29.2343 26.3269C16.9421 26.3269 6.7307 26.355 6.55155 26.4113ZM20.4561 28.8447C20.4561 29.0276 20.3596 30.3358 20.2494 31.7705C20.1392 33.2053 20.0427 34.5838 20.0427 34.8229V35.2871H13.1524C8.90802 35.2871 6.26216 35.2308 6.26216 35.1605C6.26216 35.0057 7.48863 28.9713 7.57131 28.7041C7.61266 28.5775 9.03205 28.5353 14.0482 28.5353H20.4561V28.8447ZM35.4769 28.9854C35.4769 29.2386 35.5733 30.6171 35.6836 32.0518C35.7938 33.4866 35.8903 34.7948 35.8903 34.9636V35.2871H29C22.5232 35.2871 22.1098 35.273 22.1098 35.0339C22.1098 34.9073 22.2062 33.5288 22.3165 31.9815C22.4267 30.4342 22.5232 29.0276 22.5232 28.8447V28.5353H29H35.4769V28.9854ZM51.0627 31.7705C51.4347 33.5147 51.7241 35.0198 51.7379 35.1042C51.7379 35.2449 50.2772 35.2871 44.8476 35.2871H37.9574V34.8229C37.9574 34.5838 37.8609 33.2053 37.7507 31.7705C37.6404 30.3358 37.544 29.0276 37.544 28.8447V28.5353L43.9795 28.5634L50.415 28.6056L51.0627 31.7705ZM19.8084 37.4955C19.8498 37.5799 19.4226 44.0785 19.3674 44.2473C19.3537 44.2754 15.9637 44.2895 11.8295 44.2895C4.73252 44.2895 4.31911 44.2754 4.38801 44.0363C4.42935 43.9097 4.74631 42.4046 5.09082 40.7026C5.44911 39.0006 5.76606 37.5658 5.79363 37.5095C5.89009 37.3689 19.7395 37.3689 19.8084 37.4955ZM36.0832 37.9878C36.1246 38.3254 36.221 39.7039 36.3037 41.0542C36.3864 42.4046 36.4829 43.6846 36.5104 43.8956L36.5793 44.2895H29H21.4345L21.4896 43.8956C21.5172 43.6846 21.6137 42.4046 21.6964 41.0542C21.779 39.7039 21.8755 38.3254 21.9168 37.9878L21.9857 37.397H29H36.0143L36.0832 37.9878ZM52.2064 37.5095C52.234 37.5658 52.551 39.0006 52.9093 40.7026C53.2538 42.4046 53.5707 43.9097 53.6121 44.0363C53.681 44.2754 53.2676 44.2895 46.1706 44.2895C42.0364 44.2895 38.6464 44.2754 38.6326 44.2473C38.5775 44.0785 38.1503 37.5799 38.1917 37.4955C38.2606 37.3689 52.11 37.3689 52.2064 37.5095ZM19.2159 46.7089C19.2159 46.8917 19.1194 48.2984 19.0092 49.8456C18.8989 51.3929 18.8024 52.7996 18.8024 52.9684V53.2919H15.0817H11.3472L11.0164 53.6435C10.8235 53.8264 10.6719 54.1499 10.6719 54.3468C10.6719 54.5438 10.8235 54.8673 11.0164 55.0502L11.3472 55.4018H33.5476H55.7343V56.4568V57.5118H29H2.26581V56.4568V55.4018H4.91167C7.43351 55.4018 7.57131 55.3878 7.87449 55.0924C8.32924 54.6704 8.30168 53.9671 7.83314 53.5873C7.48863 53.32 7.28192 53.2919 5.00814 53.2919C3.64386 53.2919 2.54142 53.2356 2.54142 53.1794C2.54142 53.0668 3.64386 47.6232 3.85057 46.7089L3.91947 46.3994H11.5677H19.2159V46.7089ZM36.8412 48.8188C36.9238 50.1551 37.0341 51.7165 37.0892 52.265L37.1719 53.2919H29H20.8282L20.9109 52.265C20.966 51.7165 21.0762 50.1551 21.1589 48.8188L21.3243 46.3994H29H36.6758L36.8412 48.8188ZM54.1495 46.7089C54.3562 47.6232 55.4587 53.0668 55.4587 53.1794C55.4587 53.2356 51.8068 53.2919 47.3281 53.2919H39.1976V52.9684C39.1976 52.7996 39.1012 51.3929 38.9909 49.8456C38.8807 48.2984 38.7842 46.8917 38.7842 46.7089V46.3994H46.4324H54.0806L54.1495 46.7089ZM30.0336 62.6459V65.5999H29H27.9665L27.9252 62.7866C27.9114 61.2393 27.9252 59.903 27.9665 59.7905C28.0078 59.6639 28.2972 59.6217 29.0276 59.6498L30.0336 59.692V62.6459ZM39.0598 68.8351V69.8901H29H18.9403V68.8351V67.7801H29H39.0598V68.8351Z" fill="#57B33E"/>
</svg>
