<svg width="56" height="56" viewBox="0 0 56 56" fill="none" xmlns="http://www.w3.org/2000/svg">
<path d="M27.3875 0.197269C27.2016 0.317628 26.9937 0.569287 26.9172 0.766238C26.7312 1.31332 26.7531 5.79942 26.95 6.28085C27.1141 6.66381 27.5953 6.99207 28 6.99207C28.4047 6.99207 28.8859 6.66381 29.05 6.28085C29.1703 5.99637 29.2031 5.32893 29.2031 3.49072C29.2031 0.810004 29.1375 0.45987 28.5578 0.164444C28.1203 -0.0653319 27.8031 -0.05439 27.3875 0.197269Z" fill="#57B33E"/>
<path d="M8.24699 8.23937C7.82042 8.66609 7.7548 9.16941 8.05011 9.61802C8.34542 10.0666 11.4079 13.1194 11.7251 13.2944C12.8079 13.8634 13.8689 12.8021 13.3001 11.7188C13.1142 11.3687 9.88761 8.16278 9.54855 7.98771C9.08917 7.75793 8.64074 7.84547 8.24699 8.23937Z" fill="#57B33E"/>
<path d="M46.3751 8.04242C45.9267 8.33784 42.8751 11.4015 42.7001 11.7188C42.1314 12.8021 43.1923 13.8634 44.2751 13.2944C44.5923 13.1194 47.6548 10.0666 47.9501 9.61802C48.2454 9.16941 48.1798 8.66609 47.7533 8.23937C47.3267 7.81264 46.8236 7.74699 46.3751 8.04242Z" fill="#57B33E"/>
<path d="M31.0078 9.465C30.7781 9.57441 28.4594 12.5943 23.625 19.0499C19.7422 24.2254 16.5047 28.613 16.4281 28.788C16.2531 29.2038 16.4172 29.7619 16.811 30.0792C17.0844 30.2871 17.2485 30.298 21.3063 30.298H25.5172L25.4516 30.7028C25.4188 30.9326 24.9594 34.3793 24.4344 38.373C23.7453 43.614 23.5047 45.7039 23.5813 45.9118C23.811 46.5464 24.7078 46.8418 25.2875 46.4698C25.5938 46.2619 39.5391 25.1335 39.6485 24.6958C39.7578 24.2801 39.4297 23.6783 38.9922 23.4704C38.686 23.3172 38.0406 23.2953 34.5953 23.2953H30.5485L31.6313 16.8288C32.6703 10.6139 32.7031 10.3513 32.5281 10.0011C32.3641 9.651 31.8172 9.28993 31.4781 9.28993C31.4016 9.28993 31.1938 9.36652 31.0078 9.465ZM28.7547 19.8815C28.0547 24.0831 27.9781 24.6302 28.1094 24.9366C28.4047 25.6368 28.4266 25.6368 32.5391 25.7025L36.2688 25.7572L31.5 33.0006C28.886 36.9943 26.6875 40.2987 26.6219 40.3644C26.5672 40.4191 26.8516 37.9462 27.2563 34.8607C27.6719 31.7861 27.9781 29.1054 27.9453 28.9193C27.9125 28.7333 27.7594 28.4598 27.6063 28.3175L27.3219 28.0549L23.6141 28.0221C21.5688 28.0112 19.9063 27.9565 19.9281 27.9018C19.9828 27.7486 29.4766 15.1109 29.5094 15.1437C29.5203 15.1547 29.1813 17.2883 28.7547 19.8815Z" fill="#57B33E"/>
<path d="M0.689062 26.9601C0.328125 27.1133 0 27.6058 0 27.9998C0 28.4048 0.328125 28.8863 0.710938 29.0505C0.995313 29.1709 1.6625 29.2037 3.5 29.2037C5.3375 29.2037 6.00469 29.1709 6.28906 29.0505C6.67188 28.8863 7 28.4048 7 27.9998C7 27.5949 6.67188 27.1133 6.28906 26.9491C5.76406 26.7302 1.20312 26.7302 0.689062 26.9601Z" fill="#57B33E"/>
<path d="M49.6891 26.9601C49.3281 27.1133 49 27.6058 49 27.9998C49 28.4048 49.3281 28.8863 49.7109 29.0505C49.9953 29.1709 50.6625 29.2037 52.5 29.2037C54.3375 29.2037 55.0047 29.1709 55.2891 29.0505C55.6719 28.8863 56 28.4048 56 27.9998C56 27.5949 55.6719 27.1133 55.2891 26.9491C54.7641 26.7302 50.2031 26.7302 49.6891 26.9601Z" fill="#57B33E"/>
<path d="M11.7577 42.6732C11.4515 42.8482 8.57493 45.6931 8.19212 46.2073C7.74368 46.8091 7.76556 47.2796 8.24681 47.761C8.67337 48.1878 9.17649 48.2534 9.62493 47.958C10.0734 47.6626 13.1249 44.5989 13.2999 44.2816C13.7265 43.4828 13.2343 42.5528 12.3921 42.5528C12.1624 42.5528 11.8781 42.6184 11.7577 42.6732Z" fill="#57B33E"/>
<path d="M42.8641 42.8701C42.5032 43.2312 42.4376 43.7783 42.7001 44.2816C42.8751 44.5989 45.9266 47.6626 46.3751 47.958C46.8235 48.2534 47.3266 48.1878 47.7532 47.761C48.2344 47.2796 48.2563 46.8091 47.8079 46.2073C47.436 45.7149 44.7016 43.0014 44.2969 42.7279C43.8594 42.4434 43.236 42.4981 42.8641 42.8701Z" fill="#57B33E"/>
<path d="M27.3875 49.2161C26.8625 49.5335 26.7969 49.8836 26.7969 52.5315C26.7969 55.1903 26.8625 55.5404 27.4422 55.8359C27.8578 56.0547 28.1422 56.0547 28.5578 55.8359C29.1375 55.5404 29.2031 55.1903 29.2031 52.5096C29.2031 49.8289 29.1375 49.4787 28.5578 49.1833C28.1203 48.9535 27.8031 48.9645 27.3875 49.2161Z" fill="#57B33E"/>
</svg>
