<svg width="24" height="28" viewBox="0 0 24 28" fill="none" xmlns="http://www.w3.org/2000/svg">
<path d="M11.8024 0.057806C11.4594 0.227385 11.5077 1.24486 11.8614 1.33785C11.9364 1.35426 12.065 1.35426 12.14 1.33785C12.5045 1.24486 12.5366 0.221914 12.1829 0.0523357C12.0221 -0.0187778 11.9578 -0.0187778 11.8024 0.057806Z" fill="#010F1C"/>
<path d="M9.05311 1.25037C8.9888 1.31601 8.94592 1.43089 8.94592 1.54029C8.94592 1.69346 8.99951 1.77551 9.26211 2.03262C9.43897 2.20766 9.61582 2.34442 9.66405 2.34442C9.82482 2.34442 10.0124 2.21861 10.0713 2.07638C10.1517 1.86851 10.0821 1.70987 9.76051 1.39806C9.45504 1.10814 9.23532 1.06438 9.05311 1.25037Z" fill="#010F1C"/>
<path d="M14.2408 1.39806C13.9193 1.70987 13.8496 1.86851 13.93 2.07638C13.9889 2.21861 14.1765 2.34442 14.3373 2.34442C14.3855 2.34442 14.5624 2.20766 14.7392 2.03262C15.0018 1.77551 15.0554 1.69346 15.0554 1.54029C15.0554 1.31054 14.8946 1.14096 14.6803 1.14096C14.557 1.14096 14.4445 1.2066 14.2408 1.39806Z" fill="#010F1C"/>
<path d="M11.6683 2.23498C10.5911 2.42097 9.82478 3.51503 10.0177 4.59814C10.141 5.29287 10.5536 5.83443 11.186 6.13529C11.5022 6.28299 11.604 6.30487 12.0006 6.30487C12.3972 6.30487 12.499 6.28299 12.8152 6.13529C13.8549 5.6375 14.2836 4.46686 13.8227 3.40562C13.469 2.58508 12.5472 2.08729 11.6683 2.23498ZM12.5097 3.15399C13.5548 3.67367 13.3779 5.20534 12.2418 5.46792C11.8613 5.55544 11.454 5.4351 11.1753 5.15611C10.9127 4.89354 10.8055 4.63644 10.8055 4.25899C10.8001 3.36733 11.738 2.7656 12.5097 3.15399Z" fill="#010F1C"/>
<path d="M7.93829 4.00189C7.72928 4.22617 7.80431 4.5325 8.09371 4.63644C8.30807 4.71302 8.67785 4.71302 8.87078 4.64191C9.1709 4.52156 9.25128 4.20429 9.03692 3.99642C8.92973 3.89248 8.84935 3.87607 8.48492 3.87607C8.10442 3.87607 8.04011 3.89248 7.93829 4.00189Z" fill="#010F1C"/>
<path d="M14.9589 4.00189C14.7499 4.22617 14.8357 4.52703 15.1304 4.64191C15.3234 4.71302 15.6931 4.71302 15.9075 4.63644C16.1969 4.5325 16.2773 4.20429 16.0576 3.99642C15.9504 3.89248 15.87 3.87607 15.5056 3.87607C15.1251 3.87607 15.0608 3.89248 14.9589 4.00189Z" fill="#010F1C"/>
<path d="M9.56221 6.22283C9.50326 6.25018 9.34249 6.39241 9.20315 6.54557C8.91376 6.86285 8.87088 7.08166 9.05309 7.26765C9.25138 7.47005 9.47647 7.41535 9.7873 7.08713C10.1303 6.73703 10.1785 6.56745 10.007 6.37599C9.86233 6.21189 9.71227 6.16265 9.56221 6.22283Z" fill="#010F1C"/>
<path d="M14.1603 6.2283C13.9888 6.29941 13.8602 6.52369 13.9031 6.67686C13.9245 6.74797 14.0639 6.93396 14.2139 7.08713C14.5247 7.41535 14.7498 7.47005 14.9481 7.26765C15.141 7.07072 15.0875 6.85738 14.7766 6.52916C14.4712 6.21736 14.3479 6.15171 14.1603 6.2283Z" fill="#010F1C"/>
<path d="M11.7595 7.28408C11.647 7.38254 11.6095 7.47007 11.588 7.73264C11.5398 8.30702 11.7488 8.60242 12.14 8.50395C12.4616 8.4219 12.5366 7.54118 12.2418 7.28408C12.1668 7.21297 12.0543 7.15826 12.0007 7.15826C11.9471 7.15826 11.8345 7.21297 11.7595 7.28408Z" fill="#010F1C"/>
<path d="M3.27062 10.2708C3.20095 10.2872 3.09913 10.3693 3.04554 10.4404C2.98658 10.5279 2.57929 12.3824 1.87724 15.8177L0.800049 21.0527V21.9991C0.800049 22.9181 0.805408 22.9509 0.923309 23.0658L1.04657 23.1862H5.90732H10.7681V24.3623V25.5384H9.14425H7.51507L7.40253 25.6642C7.29535 25.7791 7.28463 25.8502 7.28463 26.4847V27.1795H5.25887C3.06697 27.1795 3.05089 27.1795 2.97587 27.4803C2.93835 27.639 3.05625 27.9125 3.18487 27.9672C3.30277 28.0109 20.6986 28.0109 20.8165 27.9672C20.9451 27.9125 21.063 27.639 21.0255 27.4803C20.9505 27.1795 20.9344 27.1795 18.7425 27.1795H16.7167V26.4793C16.7167 25.4618 16.8722 25.5384 14.8518 25.5384H13.2333V24.3623V23.1862H18.0994H22.9709L23.0834 23.0603C23.196 22.94 23.2013 22.8853 23.2013 21.9772L23.196 21.0254L22.1081 15.7575C21.1863 11.2719 21.0041 10.4732 20.9022 10.3693L20.7843 10.249L12.0918 10.238C7.31142 10.238 3.34029 10.249 3.27062 10.2708ZM8.67801 11.2172C8.67801 11.2883 8.64049 11.797 8.59762 12.355C8.55475 12.913 8.51723 13.4491 8.51723 13.5421V13.7226H5.83766C4.18704 13.7226 3.15808 13.7007 3.15808 13.6733C3.15808 13.6132 3.63504 11.2664 3.6672 11.1625C3.68327 11.1133 4.23527 11.0968 6.186 11.0968H8.67801V11.2172ZM14.5195 11.2719C14.5195 11.3704 14.557 11.9064 14.5999 12.4644C14.6427 13.0224 14.6803 13.5311 14.6803 13.5968V13.7226H12.0007C9.48188 13.7226 9.32111 13.7171 9.32111 13.6241C9.32111 13.5749 9.35862 13.0388 9.40149 12.4371C9.44437 11.8353 9.48188 11.2883 9.48188 11.2172V11.0968H12.0007H14.5195V11.2719ZM20.5807 12.355C20.7254 13.0333 20.8379 13.6186 20.8433 13.6515C20.8433 13.7062 20.2752 13.7226 18.1637 13.7226H15.4841V13.5421C15.4841 13.4491 15.4466 12.913 15.4037 12.355C15.3609 11.797 15.3234 11.2883 15.3234 11.2172V11.0968L17.8261 11.1078L20.3288 11.1242L20.5807 12.355ZM8.42613 14.5814C8.4422 14.6142 8.27607 17.1415 8.25463 17.2071C8.24928 17.2181 6.93092 17.2236 5.32318 17.2236C2.56321 17.2236 2.40244 17.2181 2.42923 17.1251C2.44531 17.0759 2.56857 16.4905 2.70255 15.8286C2.84189 15.1667 2.96515 14.6088 2.97587 14.5869C3.01338 14.5322 8.39933 14.5322 8.42613 14.5814ZM14.7553 14.7729C14.7714 14.9042 14.8089 15.4402 14.841 15.9654C14.8732 16.4905 14.9107 16.9883 14.9214 17.0704L14.9482 17.2236H12.0007H9.05851L9.07994 17.0704C9.09066 16.9883 9.12818 16.4905 9.16033 15.9654C9.19249 15.4402 9.23 14.9042 9.24608 14.7729L9.27287 14.5431H12.0007H14.7285L14.7553 14.7729ZM21.0255 14.5869C21.0362 14.6088 21.1595 15.1667 21.2988 15.8286C21.4328 16.4905 21.5561 17.0759 21.5721 17.1251C21.5989 17.2181 21.4382 17.2236 18.6782 17.2236C17.0704 17.2236 15.7521 17.2181 15.7467 17.2071C15.7253 17.1415 15.5592 14.6142 15.5752 14.5814C15.602 14.5322 20.988 14.5322 21.0255 14.5869ZM8.19568 18.1644C8.19568 18.2356 8.15817 18.7826 8.1153 19.3843C8.07242 19.986 8.03491 20.5331 8.03491 20.5987V20.7245H6.58794H5.13561L5.00699 20.8613C4.93196 20.9324 4.87301 21.0582 4.87301 21.1348C4.87301 21.2114 4.93196 21.3372 5.00699 21.4083L5.13561 21.5451H13.7692H22.3974V21.9553V22.3656H12.0007H1.60392V21.9553V21.5451H2.63288C3.61361 21.5451 3.6672 21.5396 3.7851 21.4247C3.96195 21.2606 3.95123 20.9871 3.76902 20.8394C3.63504 20.7355 3.55465 20.7245 2.67039 20.7245C2.13984 20.7245 1.71111 20.7027 1.71111 20.6808C1.71111 20.637 2.13984 18.52 2.22023 18.1644L2.24702 18.0441H5.22135H8.19568V18.1644ZM15.05 18.985C15.0822 19.5047 15.1251 20.1119 15.1465 20.3252L15.1787 20.7245H12.0007H8.8227L8.85486 20.3252C8.8763 20.1119 8.91917 19.5047 8.95132 18.985L9.01563 18.0441H12.0007H14.9857L15.05 18.985ZM21.7811 18.1644C21.8615 18.52 22.2903 20.637 22.2903 20.6808C22.2903 20.7027 20.8701 20.7245 19.1284 20.7245H15.9665V20.5987C15.9665 20.5331 15.9289 19.986 15.8861 19.3843C15.8432 18.7826 15.8057 18.2356 15.8057 18.1644V18.0441H18.78H21.7543L21.7811 18.1644ZM12.4026 24.3623V25.511H12.0007H11.5987L11.5827 24.417C11.5773 23.8152 11.5827 23.2956 11.5987 23.2518C11.6148 23.2026 11.7274 23.1862 12.0114 23.1971L12.4026 23.2135V24.3623ZM15.9129 26.7692V27.1795H12.0007H8.0885V26.7692V26.3589H12.0007H15.9129V26.7692Z" fill="#010F1C"/>
</svg>
